<svg width="16" height="17" viewBox="0 0 16 17" fill="none" xmlns="http://www.w3.org/2000/svg">
<path d="M14.7417 7.75877L8.17742 14.3231C7.37324 15.1272 6.28255 15.579 5.14528 15.579C4.008 15.579 2.91731 15.1272 2.11313 14.3231C1.30896 13.5189 0.857178 12.4282 0.857178 11.2909C0.857178 10.1536 1.30896 9.06294 2.11313 8.25877L8.67742 1.69448C9.21353 1.15836 9.94066 0.857178 10.6988 0.857178C11.457 0.857178 12.1842 1.15836 12.7203 1.69448C13.2564 2.2306 13.5576 2.95773 13.5576 3.71591C13.5576 4.47409 13.2564 5.20122 12.7203 5.73734L6.14885 12.3016C5.88079 12.5697 5.51722 12.7203 5.13813 12.7203C4.75904 12.7203 4.39548 12.5697 4.12742 12.3016C3.85936 12.0336 3.70877 11.67 3.70877 11.2909C3.70877 10.9118 3.85936 10.5483 4.12742 10.2802L10.1917 4.22305" stroke="#828282" stroke-linecap="round" stroke-linejoin="round"/>
</svg>
