<svg width="189" height="160" viewBox="0 0 189 160" fill="none" xmlns="http://www.w3.org/2000/svg">
<path d="M184.373 159.16H107.544C106.318 159.158 105.142 158.67 104.274 157.803C103.407 156.936 102.919 155.76 102.918 154.533V99.2945C102.919 98.0679 103.407 96.8919 104.274 96.0246C105.142 95.1572 106.318 94.6694 107.544 94.668H184.373C185.6 94.6694 186.776 95.1573 187.643 96.0246C188.511 96.892 188.999 98.0679 189 99.2945V154.533C188.999 155.76 188.511 156.936 187.643 157.803C186.776 158.67 185.6 159.158 184.373 159.16Z" fill="#E6E6E6"/>
<path d="M108.964 155.471H182.953C183.548 155.471 184.119 155.235 184.539 154.814C184.96 154.394 185.196 153.823 185.196 153.228V100.599C185.196 100.004 184.96 99.4336 184.539 99.013C184.119 98.5923 183.548 98.356 182.953 98.356H108.964C108.369 98.356 107.799 98.5923 107.378 99.013C106.958 99.4336 106.721 100.004 106.721 100.599V153.228C106.721 153.823 106.958 154.394 107.378 154.814C107.799 155.235 108.369 155.471 108.964 155.471Z" fill="white"/>
<path d="M81.4557 85.0014H4.62657C3.39995 85 2.22397 84.5121 1.35662 83.6447C0.489271 82.7774 0.00138559 81.6014 0 80.3748V25.1363C0.00138485 23.9097 0.489271 22.7337 1.35662 21.8664C2.22397 20.999 3.39995 20.5112 4.62657 20.5098H81.4557C82.6823 20.5112 83.8583 20.999 84.7256 21.8664C85.593 22.7337 86.0808 23.9097 86.0822 25.1363V80.3748C86.0808 81.6014 85.593 82.7774 84.7256 83.6447C83.8583 84.5121 82.6823 85 81.4557 85.0014Z" fill="#E6E6E6"/>
<path d="M6.04677 81.3133H80.0356C80.6305 81.3133 81.2011 81.0769 81.6218 80.6563C82.0425 80.2356 82.2788 79.665 82.2788 79.0701V26.4409C82.2788 25.846 82.0425 25.2754 81.6218 24.8548C81.2011 24.4341 80.6305 24.1978 80.0356 24.1978H6.04677C5.45184 24.1978 4.88128 24.4341 4.4606 24.8548C4.03992 25.2754 3.80359 25.846 3.80359 26.4409V79.0701C3.80359 79.665 4.03992 80.2356 4.4606 80.6563C4.88128 81.0769 5.45184 81.3133 6.04677 81.3133Z" fill="white"/>
<path d="M174.134 114.709H126.872C126.651 114.709 126.431 114.753 126.227 114.837C126.022 114.922 125.836 115.047 125.679 115.203C125.522 115.36 125.398 115.546 125.313 115.751C125.228 115.956 125.185 116.175 125.185 116.397C125.185 116.619 125.228 116.838 125.313 117.043C125.398 117.248 125.522 117.434 125.679 117.59C125.836 117.747 126.022 117.871 126.227 117.956C126.431 118.041 126.651 118.085 126.872 118.085H174.134C174.581 118.085 175.011 117.907 175.327 117.59C175.644 117.274 175.822 116.845 175.822 116.397C175.822 115.949 175.644 115.52 175.327 115.203C175.011 114.887 174.581 114.709 174.134 114.709Z" fill="#E6E6E6"/>
<path d="M126.872 125.096C126.651 125.096 126.431 125.14 126.227 125.225C126.022 125.31 125.836 125.434 125.679 125.591C125.522 125.747 125.398 125.933 125.313 126.138C125.228 126.343 125.185 126.562 125.185 126.784C125.185 127.006 125.228 127.225 125.313 127.43C125.398 127.635 125.522 127.821 125.679 127.978C125.836 128.134 126.022 128.259 126.227 128.344C126.431 128.428 126.651 128.472 126.872 128.472H174.134C174.581 128.472 175.011 128.294 175.327 127.978C175.644 127.661 175.822 127.232 175.822 126.784C175.822 126.336 175.644 125.907 175.327 125.591C175.011 125.274 174.581 125.096 174.134 125.096H126.872Z" fill="#E6E6E6"/>
<path d="M126.872 135.483C126.425 135.483 125.995 135.661 125.679 135.978C125.362 136.294 125.185 136.723 125.185 137.171C125.185 137.619 125.362 138.048 125.679 138.365C125.995 138.681 126.425 138.859 126.872 138.859H174.134C174.581 138.859 175.011 138.681 175.327 138.365C175.644 138.048 175.822 137.619 175.822 137.171C175.822 136.723 175.644 136.294 175.327 135.978C175.011 135.661 174.581 135.483 174.134 135.483H126.872Z" fill="#E6E6E6"/>
<path d="M117.914 118.604C119.061 118.604 119.991 117.674 119.991 116.527C119.991 115.379 119.061 114.449 117.914 114.449C116.766 114.449 115.836 115.379 115.836 116.527C115.836 117.674 116.766 118.604 117.914 118.604Z" fill="#004AFF"/>
<path d="M117.914 128.991C119.061 128.991 119.991 128.061 119.991 126.914C119.991 125.767 119.061 124.836 117.914 124.836C116.766 124.836 115.836 125.767 115.836 126.914C115.836 128.061 116.766 128.991 117.914 128.991Z" fill="#E6E6E6"/>
<path d="M117.914 139.378C119.061 139.378 119.991 138.448 119.991 137.301C119.991 136.153 119.061 135.223 117.914 135.223C116.766 135.223 115.836 136.153 115.836 137.301C115.836 138.448 116.766 139.378 117.914 139.378Z" fill="#E6E6E6"/>
<path d="M155.307 116.397C155.307 116.619 155.264 116.838 155.179 117.043C155.094 117.248 154.97 117.434 154.813 117.59C154.656 117.747 154.47 117.871 154.265 117.956C154.06 118.041 153.841 118.085 153.619 118.085H126.933C126.516 118.091 126.111 117.946 125.793 117.677C125.474 117.408 125.263 117.033 125.199 116.621C125.168 116.383 125.187 116.14 125.257 115.91C125.327 115.68 125.445 115.467 125.603 115.286C125.761 115.105 125.957 114.96 126.175 114.861C126.394 114.761 126.632 114.709 126.872 114.709H153.619C154.067 114.709 154.496 114.887 154.813 115.203C155.129 115.52 155.307 115.949 155.307 116.397V116.397Z" fill="#004AFF"/>
<path d="M145.959 87.5726C149.688 87.5726 152.71 84.5498 152.71 80.821C152.71 77.0921 149.688 74.0693 145.959 74.0693C142.23 74.0693 139.207 77.0921 139.207 80.821C139.207 84.5498 142.23 87.5726 145.959 87.5726Z" fill="#E6E6E6"/>
<path d="M149.291 81.3618C149.59 79.5215 148.34 77.7875 146.5 77.4889C144.659 77.1902 142.925 78.44 142.627 80.2803C142.328 82.1207 143.578 83.8546 145.418 84.1533C147.258 84.4519 148.992 83.2021 149.291 81.3618Z" fill="white"/>
<path d="M11.5161 51.1516C11.0725 51.1516 10.647 51.3278 10.3333 51.6415C10.0196 51.9552 9.84338 52.3807 9.84338 52.8244C9.84338 53.268 10.0196 53.6935 10.3333 54.0072C10.647 54.3209 11.0725 54.4971 11.5161 54.4971H74.566C75.0097 54.4971 75.4351 54.3209 75.7488 54.0072C76.0625 53.6935 76.2388 53.268 76.2388 52.8244C76.2388 52.3807 76.0625 51.9552 75.7488 51.6415C75.4351 51.3278 75.0097 51.1516 74.566 51.1516H11.5161Z" fill="#E6E6E6"/>
<path d="M11.5161 61.4456C11.0725 61.4456 10.647 61.6218 10.3333 61.9355C10.0196 62.2492 9.84338 62.6747 9.84338 63.1183C9.84338 63.562 10.0196 63.9874 10.3333 64.3011C10.647 64.6148 11.0725 64.7911 11.5161 64.7911H74.566C75.0097 64.7911 75.4351 64.6148 75.7488 64.3011C76.0625 63.9874 76.2388 63.562 76.2388 63.1183C76.2388 62.6747 76.0625 62.2492 75.7488 61.9355C75.4351 61.6218 75.0097 61.4456 74.566 61.4456H11.5161Z" fill="#E6E6E6"/>
<path d="M39.6956 72.2542C39.2519 72.2542 38.8265 72.4304 38.5128 72.7441C38.1991 73.0578 38.0228 73.4833 38.0228 73.9269C38.0228 74.3705 38.1991 74.796 38.5128 75.1097C38.8265 75.4234 39.2519 75.5997 39.6956 75.5997H46.3866C46.8302 75.5997 47.2557 75.4234 47.5694 75.1097C47.8831 74.796 48.0593 74.3705 48.0593 73.9269C48.0593 73.4833 47.8831 73.0578 47.5694 72.7441C47.2557 72.4304 46.8302 72.2542 46.3866 72.2542H39.6956Z" fill="#004AFF"/>
<path d="M34.0751 29.9114C33.9387 29.9115 33.8078 29.9658 33.7113 30.0623C33.6148 30.1588 33.5606 30.2896 33.5604 30.4261V43.4916C33.5606 43.628 33.6148 43.7589 33.7113 43.8553C33.8078 43.9518 33.9387 44.0061 34.0751 44.0062H52.0069C52.1434 44.0061 52.2742 43.9518 52.3707 43.8553C52.4672 43.7589 52.5215 43.628 52.5216 43.4916V30.4261C52.5215 30.2896 52.4672 30.1588 52.3707 30.0623C52.2742 29.9658 52.1434 29.9115 52.0069 29.9114L34.0751 29.9114Z" fill="#004AFF"/>
<path d="M43.041 38.3447C44.6044 38.3447 45.8718 37.0773 45.8718 35.5139C45.8718 33.9505 44.6044 32.6831 43.041 32.6831C41.4776 32.6831 40.2102 33.9505 40.2102 35.5139C40.2102 37.0773 41.4776 38.3447 43.041 38.3447Z" fill="white"/>
<path d="M47.6733 42.7195C47.6743 43.1669 47.5684 43.608 47.3645 44.0062H38.7176C38.4973 43.5746 38.3914 43.0937 38.4102 42.6095C38.429 42.1253 38.5717 41.654 38.8248 41.2408C39.0779 40.8275 39.4329 40.4862 39.8557 40.2495C40.2785 40.0127 40.755 39.8885 41.2396 39.8887H44.8425C45.5928 39.8882 46.3126 40.1859 46.8435 40.7162C47.3744 41.2465 47.6729 41.9659 47.6733 42.7163V42.7195Z" fill="white"/>
<path d="M43.041 38.3447C44.6044 38.3447 45.8718 37.0773 45.8718 35.5139C45.8718 33.9505 44.6044 32.6831 43.041 32.6831C41.4776 32.6831 40.2102 33.9505 40.2102 35.5139C40.2102 37.0773 41.4776 38.3447 43.041 38.3447Z" fill="white"/>
<path d="M47.6733 42.7195C47.6743 43.1669 47.5684 43.608 47.3645 44.0062H38.7176C38.4973 43.5746 38.3914 43.0937 38.4102 42.6095C38.429 42.1253 38.5717 41.654 38.8248 41.2408C39.0779 40.8275 39.4329 40.4862 39.8557 40.2495C40.2785 40.0127 40.755 39.8885 41.2396 39.8887H44.8425C45.5928 39.8882 46.3126 40.1859 46.8435 40.7162C47.3744 41.2465 47.6729 41.9659 47.6733 42.7163V42.7195Z" fill="white"/>
<path d="M43.0411 13.382C46.7365 13.382 49.7321 10.3864 49.7321 6.69101C49.7321 2.99567 46.7365 0 43.0411 0C39.3458 0 36.3501 2.99567 36.3501 6.69101C36.3501 10.3864 39.3458 13.382 43.0411 13.382Z" fill="#E6E6E6"/>
<path d="M43.0412 10.0365C44.8889 10.0365 46.3867 8.53863 46.3867 6.69096C46.3867 4.84329 44.8889 3.34546 43.0412 3.34546C41.1935 3.34546 39.6957 4.84329 39.6957 6.69096C39.6957 8.53863 41.1935 10.0365 43.0412 10.0365Z" fill="#004AFF"/>
</svg>
