<svg width="24" height="22" viewBox="0 0 24 22" fill="none" xmlns="http://www.w3.org/2000/svg">
<path d="M12 11V11.0116M7.33329 11V11.0116M16.6667 11V11.0116M1.5 20.3333L3.01667 15.7833C1.70585 13.8446 1.23166 11.5488 1.68225 9.32264C2.13285 7.09651 3.47757 5.09157 5.4664 3.6806C7.45522 2.26964 9.9528 1.54866 12.4948 1.65173C15.0367 1.7548 17.4501 2.67489 19.2862 4.24094C21.1222 5.80698 22.256 7.91241 22.4767 10.1658C22.6975 12.4191 21.9901 14.667 20.4862 16.4916C18.9823 18.3161 16.7841 19.5932 14.3004 20.0852C11.8168 20.5772 9.21657 20.2508 6.98333 19.1666L1.5 20.3333Z" stroke="#004AFF" stroke-width="2" stroke-linecap="round" stroke-linejoin="round"/>
</svg>
