<svg width="23" height="23" viewBox="0 0 23 23" fill="none" xmlns="http://www.w3.org/2000/svg">
<path d="M11.5 11.5001V11.5097M7.66663 11.5001V11.5097M15.3333 11.5001V11.5097M2.875 19.1668L4.12083 15.4293C3.04409 13.8368 2.65458 11.9509 3.02471 10.1223C3.39484 8.2937 4.49943 6.64678 6.13311 5.48778C7.76679 4.32877 9.81837 3.73654 11.9064 3.8212C13.9945 3.90586 15.9769 4.66165 17.4851 5.94805C18.9933 7.23444 19.9246 8.96391 20.1059 10.8149C20.2872 12.6658 19.7062 14.5124 18.4708 16.0111C17.2354 17.5098 15.4298 18.5588 13.3896 18.963C11.3495 19.3671 9.21361 19.099 7.37917 18.2084L2.875 19.1668Z" stroke="white" stroke-linecap="round" stroke-linejoin="round"/>
</svg>
