<svg width="197" height="179" viewBox="0 0 197 179" fill="none" xmlns="http://www.w3.org/2000/svg">
<g clip-path="url(#clip0)">
<path d="M169.217 16.4592L4.69116 64.3709L9.04898 79.3203L173.575 31.4085L169.217 16.4592Z" fill="#2F2E41"/>
<path d="M24.3487 133.04L0.0989369 49.8517C-0.0808445 49.235 -0.0081281 48.5721 0.301078 48.0089C0.610284 47.4457 1.13065 47.0284 1.74772 46.8487L162.285 0.0983752C162.902 -0.0807116 163.565 -0.00778573 164.128 0.301154C164.692 0.610093 165.109 1.1298 165.29 1.7462L186.773 75.4448L186.108 75.6384L164.625 1.93982C164.496 1.49972 164.197 1.12871 163.795 0.908074C163.393 0.687436 162.919 0.635159 162.479 0.762703L1.9414 47.513C1.50064 47.6414 1.12894 47.9395 0.908083 48.3418C0.687221 48.7441 0.635281 49.2176 0.76369 49.6581L25.0135 132.846L24.3487 133.04Z" fill="#2F2E41"/>
<path d="M151.24 75.7862C150.753 75.7857 150.279 75.6275 149.889 75.3354C149.5 75.0433 149.215 74.6329 149.078 74.1657L145.011 60.213C144.845 59.6404 144.913 59.0252 145.2 58.5024C145.487 57.9797 145.969 57.592 146.542 57.4246L160.502 53.3593C161.075 53.1932 161.69 53.261 162.213 53.5479C162.736 53.8348 163.124 54.3174 163.292 54.8897L167.359 68.8424C167.525 69.4151 167.457 70.0303 167.17 70.553C166.883 71.0758 166.401 71.4634 165.828 71.6309L151.868 75.6961C151.664 75.7558 151.453 75.7861 151.24 75.7862Z" fill="#00BBF9"/>
<path d="M23.9728 50.1079C23.931 49.9646 23.8813 49.8237 23.8239 49.6858C23.4336 48.7389 22.7069 47.9696 21.7836 47.5257C20.8603 47.0818 19.8054 46.9946 18.8216 47.2809C17.8379 47.5672 16.9947 48.2067 16.454 49.0766C15.9134 49.9465 15.7135 50.9855 15.8927 51.9938C15.9178 52.1409 15.9514 52.2864 15.9931 52.4298C16.2459 53.2922 16.7714 54.0497 17.491 54.5886C18.2105 55.1276 19.0854 55.419 19.9846 55.4194C20.3772 55.4202 20.7679 55.3643 21.1444 55.2533C22.2013 54.9446 23.0926 54.2296 23.6228 53.265C24.1531 52.3005 24.2789 51.1651 23.9728 50.1079ZM20.9505 54.5889C20.0691 54.8446 19.1222 54.7405 18.3175 54.2994C17.5128 53.8583 16.9159 53.1163 16.6577 52.236C16.6172 52.0926 16.5848 51.947 16.5607 51.8C16.4309 50.9692 16.6082 50.1197 17.0596 49.4101C17.5109 48.7006 18.2054 48.1796 19.0132 47.9447C19.8209 47.7098 20.6867 47.777 21.4484 48.1337C22.2102 48.4905 22.8159 49.1123 23.1523 49.883C23.215 50.0184 23.2671 50.1583 23.3081 50.3017C23.5636 51.1827 23.4588 52.129 23.0168 52.9329C22.5747 53.7367 21.8316 54.3323 20.9505 54.5889V54.5889Z" fill="#00BBF9"/>
<path d="M13.7834 53.0733C13.5619 52.3129 13.5832 51.5023 13.8443 50.7544C14.1055 50.0066 14.5935 49.3588 15.2403 48.9013C14.6343 48.8718 14.0299 48.9875 13.4777 49.2387C12.9254 49.4899 12.4412 49.8693 12.0653 50.3454C11.6895 50.8216 11.4329 51.3805 11.317 51.9758C11.201 52.5711 11.2291 53.1855 11.3989 53.7678C11.5686 54.35 11.8751 54.8833 12.2928 55.3232C12.7104 55.7631 13.2273 56.0969 13.8002 56.2967C14.373 56.4965 14.9854 56.5567 15.5862 56.4721C16.1871 56.3875 16.759 56.1606 17.2543 55.8103C16.4628 55.7717 15.7031 55.4873 15.0809 54.9967C14.4588 54.5061 14.0052 53.8337 13.7834 53.0733Z" fill="#00BBF9"/>
<path d="M121.403 70.2222C121.329 69.9574 121.204 69.7097 121.034 69.4933C120.865 69.2769 120.654 69.096 120.415 68.961C120.175 68.8261 119.911 68.7396 119.638 68.7066C119.365 68.6737 119.088 68.6948 118.824 68.7689L95.8395 75.1945L93.3643 75.8865H108.908L111.384 75.1945L119.952 72.8C120.486 72.65 120.939 72.2943 121.211 71.811C121.483 71.3277 121.552 70.7562 121.403 70.2222Z" fill="#CCCCCC"/>
<path d="M105.142 65.4229C104.992 64.8888 104.636 64.4361 104.153 64.1642C103.669 63.8923 103.097 63.8236 102.563 63.973L68.0749 73.6132C67.5929 73.7497 67.1757 74.0537 66.8983 74.4706C66.6209 74.8874 66.5016 75.3896 66.5619 75.8866H75.4903L77.969 75.1945L103.691 68.0042C104.226 67.8537 104.679 67.4974 104.951 67.0134C105.223 66.5295 105.292 65.9574 105.142 65.4229Z" fill="#CCCCCC"/>
<path d="M193.929 75.1937H26.7159C26.0734 75.1944 25.4574 75.4498 25.0031 75.9039C24.5488 76.358 24.2932 76.9737 24.2925 77.6158V176.578C24.2932 177.22 24.5487 177.836 25.003 178.29C25.4574 178.744 26.0733 178.999 26.7159 179H193.929C194.571 178.999 195.187 178.744 195.641 178.29C196.096 177.836 196.351 177.22 196.352 176.578V77.6158C196.351 76.9737 196.096 76.358 195.641 75.904C195.187 75.4499 194.571 75.1944 193.929 75.1937ZM195.66 176.578C195.659 177.037 195.477 177.477 195.152 177.801C194.828 178.125 194.388 178.308 193.929 178.308H26.7159C26.2568 178.308 25.8166 178.125 25.492 177.801C25.1675 177.477 24.985 177.037 24.9849 176.578V77.6158C24.9851 77.157 25.1675 76.7171 25.4921 76.3927C25.8167 76.0683 26.2568 75.8859 26.7159 75.8857H193.929C194.388 75.8859 194.828 76.0683 195.152 76.3927C195.477 76.7171 195.659 77.157 195.66 77.6158V176.578Z" fill="#2F2E41"/>
<path d="M42.9859 88.6893C42.1642 88.6893 41.361 88.4458 40.6779 87.9895C39.9947 87.5332 39.4622 86.8848 39.1478 86.126C38.8333 85.3673 38.7511 84.5324 38.9114 83.727C39.0717 82.9215 39.4673 82.1816 40.0483 81.6009C40.6293 81.0202 41.3696 80.6248 42.1754 80.4646C42.9813 80.3043 43.8166 80.3866 44.5757 80.7008C45.3348 81.0151 45.9836 81.5473 46.4401 82.2302C46.8966 82.913 47.1402 83.7158 47.1402 84.537C47.139 85.6379 46.7009 86.6933 45.9221 87.4717C45.1432 88.2501 44.0873 88.688 42.9859 88.6893ZM42.9859 81.0768C42.3012 81.0768 41.6318 81.2797 41.0625 81.66C40.4932 82.0402 40.0495 82.5806 39.7875 83.2129C39.5254 83.8451 39.4569 84.5409 39.5905 85.2121C39.724 85.8833 40.0538 86.4998 40.5379 86.9838C41.0221 87.4677 41.6389 87.7972 42.3105 87.9308C42.982 88.0643 43.6781 87.9957 44.3107 87.7338C44.9433 87.4719 45.484 87.0284 45.8644 86.4594C46.2448 85.8904 46.4478 85.2214 46.4478 84.537C46.4468 83.6196 46.0817 82.7401 45.4327 82.0914C44.7837 81.4427 43.9037 81.0778 42.9859 81.0768Z" fill="#00BBF9"/>
<path d="M36.5287 84.537C36.5288 83.745 36.7761 82.9727 37.2361 82.3277C37.6961 81.6828 38.3459 81.1973 39.095 80.9389C38.5214 80.7411 37.9088 80.6832 37.3083 80.77C36.7078 80.8567 36.1367 81.0856 35.6426 81.4377C35.1485 81.7897 34.7457 82.2546 34.4678 82.7938C34.1899 83.3329 34.0449 83.9306 34.0449 84.537C34.0449 85.1435 34.1899 85.7412 34.4678 86.2803C34.7457 86.8194 35.1485 87.2844 35.6426 87.6364C36.1367 87.9884 36.7078 88.2174 37.3083 88.3041C37.9088 88.3909 38.5214 88.3329 39.095 88.1352C38.3459 87.8768 37.6961 87.3913 37.2361 86.7463C36.7761 86.1014 36.5288 85.3291 36.5287 84.537Z" fill="#00BBF9"/>
<path d="M59.8262 133.595C59.0002 133.594 58.2082 133.266 57.6241 132.682C57.04 132.098 56.7114 131.307 56.7104 130.481V121.138C56.7104 120.313 57.0387 119.52 57.623 118.936C58.2073 118.352 58.9999 118.024 59.8262 118.024C60.6526 118.024 61.4451 118.352 62.0294 118.936C62.6137 119.52 62.942 120.313 62.942 121.138V130.481C62.941 131.307 62.6125 132.098 62.0283 132.682C61.4442 133.266 60.6523 133.594 59.8262 133.595Z" fill="#00BBF9"/>
<path d="M68.1348 133.595C67.3087 133.594 66.5168 133.266 65.9327 132.682C65.3486 132.098 65.02 131.307 65.019 130.481V121.138C65.019 120.313 65.3473 119.52 65.9316 118.936C66.5159 118.352 67.3084 118.024 68.1348 118.024C68.9611 118.024 69.7536 118.352 70.338 118.936C70.9223 119.52 71.2506 120.313 71.2506 121.138V130.481C71.2496 131.307 70.921 132.098 70.3369 132.682C69.7528 133.266 68.9609 133.594 68.1348 133.595Z" fill="#00BBF9"/>
<path d="M76.4434 133.595C75.6173 133.594 74.8254 133.266 74.2413 132.682C73.6572 132.098 73.3286 131.307 73.3276 130.481V121.138C73.3276 120.313 73.6559 119.52 74.2402 118.936C74.8245 118.352 75.6171 118.024 76.4434 118.024C77.2698 118.024 78.0623 118.352 78.6466 118.936C79.2309 119.52 79.5592 120.313 79.5592 121.138V130.481C79.5582 131.307 79.2297 132.098 78.6456 132.682C78.0614 133.266 77.2695 133.594 76.4434 133.595Z" fill="#00BBF9"/>
<path d="M89.2527 133.595C88.4267 133.594 87.6347 133.266 87.0506 132.682C86.4665 132.098 86.1379 131.307 86.137 130.481V121.138C86.137 120.313 86.4652 119.52 87.0496 118.936C87.6339 118.352 88.4264 118.024 89.2527 118.024C90.0791 118.024 90.8716 118.352 91.4559 118.936C92.0402 119.52 92.3685 120.313 92.3685 121.138V130.481C92.3675 131.307 92.039 132.098 91.4549 132.682C90.8707 133.266 90.0788 133.594 89.2527 133.595Z" fill="#00BBF9"/>
<path d="M97.5616 133.595C96.7355 133.594 95.9436 133.266 95.3594 132.682C94.7753 132.098 94.4467 131.307 94.4458 130.481V121.138C94.4458 120.313 94.7741 119.52 95.3584 118.936C95.9427 118.352 96.7352 118.024 97.5616 118.024C98.3879 118.024 99.1804 118.352 99.7647 118.936C100.349 119.52 100.677 120.313 100.677 121.138V130.481C100.676 131.307 100.348 132.098 99.7637 132.682C99.1796 133.266 98.3876 133.594 97.5616 133.595Z" fill="#00BBF9"/>
<path d="M105.87 133.595C105.044 133.594 104.252 133.266 103.668 132.682C103.084 132.098 102.755 131.307 102.754 130.481V121.138C102.754 120.313 103.083 119.52 103.667 118.936C104.251 118.352 105.044 118.024 105.87 118.024C106.697 118.024 107.489 118.352 108.073 118.936C108.658 119.52 108.986 120.313 108.986 121.138V130.481C108.985 131.307 108.656 132.098 108.072 132.682C107.488 133.266 106.696 133.594 105.87 133.595Z" fill="#00BBF9"/>
<path d="M118.679 133.595C117.853 133.594 117.061 133.266 116.477 132.682C115.893 132.098 115.565 131.307 115.564 130.481V121.138C115.564 120.313 115.892 119.52 116.476 118.936C117.061 118.352 117.853 118.024 118.679 118.024C119.506 118.024 120.298 118.352 120.883 118.936C121.467 119.52 121.795 120.313 121.795 121.138V130.481C121.794 131.307 121.466 132.098 120.882 132.682C120.298 133.266 119.506 133.594 118.679 133.595Z" fill="#00BBF9"/>
<path d="M126.988 133.595C126.162 133.594 125.37 133.266 124.786 132.682C124.202 132.098 123.873 131.307 123.872 130.481V121.138C123.872 120.313 124.201 119.52 124.785 118.936C125.369 118.352 126.162 118.024 126.988 118.024C127.814 118.024 128.607 118.352 129.191 118.936C129.776 119.52 130.104 120.313 130.104 121.138V130.481C130.103 131.307 129.774 132.098 129.19 132.682C128.606 133.266 127.814 133.594 126.988 133.595Z" fill="#00BBF9"/>
<path d="M135.297 133.595C134.471 133.594 133.679 133.266 133.095 132.682C132.511 132.098 132.182 131.307 132.181 130.481V121.138C132.181 120.313 132.509 119.52 133.094 118.936C133.678 118.352 134.471 118.024 135.297 118.024C136.123 118.024 136.916 118.352 137.5 118.936C138.084 119.52 138.413 120.313 138.413 121.138V130.481C138.412 131.307 138.083 132.098 137.499 132.682C136.915 133.266 136.123 133.594 135.297 133.595Z" fill="#00BBF9"/>
<path d="M148.106 133.595C147.28 133.594 146.488 133.266 145.904 132.682C145.32 132.098 144.991 131.307 144.99 130.481V121.138C144.99 120.313 145.319 119.52 145.903 118.936C146.487 118.352 147.28 118.024 148.106 118.024C148.932 118.024 149.725 118.352 150.309 118.936C150.893 119.52 151.222 120.313 151.222 121.138V130.481C151.221 131.307 150.892 132.098 150.308 132.682C149.724 133.266 148.932 133.594 148.106 133.595Z" fill="#00BBF9"/>
<path d="M156.415 133.595C155.589 133.594 154.797 133.266 154.213 132.682C153.629 132.098 153.3 131.307 153.299 130.481V121.138C153.299 120.313 153.627 119.52 154.212 118.936C154.796 118.352 155.588 118.024 156.415 118.024C157.241 118.024 158.034 118.352 158.618 118.936C159.202 119.52 159.531 120.313 159.531 121.138V130.481C159.53 131.307 159.201 132.098 158.617 132.682C158.033 133.266 157.241 133.594 156.415 133.595Z" fill="#00BBF9"/>
<path d="M164.723 133.595C163.897 133.594 163.105 133.266 162.521 132.682C161.937 132.098 161.609 131.307 161.608 130.481V121.138C161.608 120.313 161.936 119.52 162.52 118.936C163.105 118.352 163.897 118.024 164.723 118.024C165.55 118.024 166.342 118.352 166.927 118.936C167.511 119.52 167.839 120.313 167.839 121.138V130.481C167.838 131.307 167.51 132.098 166.926 132.682C166.341 133.266 165.549 133.594 164.723 133.595Z" fill="#00BBF9"/>
<path d="M80.9504 168.255H36.1387C35.5835 168.255 35.051 168.035 34.6584 167.642C34.2657 167.25 34.0452 166.718 34.0452 166.163C34.0452 165.608 34.2657 165.075 34.6584 164.683C35.051 164.291 35.5835 164.07 36.1387 164.07H80.9504C81.5057 164.07 82.0382 164.291 82.4308 164.683C82.8234 165.075 83.044 165.608 83.044 166.163C83.044 166.718 82.8234 167.25 82.4308 167.642C82.0382 168.035 81.5057 168.255 80.9504 168.255Z" fill="#E6E6E6"/>
<path d="M66.5831 159.259H50.5057C49.9504 159.259 49.4179 159.038 49.0253 158.646C48.6327 158.253 48.4121 157.721 48.4121 157.166C48.4121 156.611 48.6327 156.079 49.0253 155.686C49.4179 155.294 49.9504 155.074 50.5057 155.074H66.5831C67.1384 155.074 67.6709 155.294 68.0635 155.686C68.4561 156.079 68.6767 156.611 68.6767 157.166C68.6767 157.721 68.4561 158.253 68.0635 158.646C67.6709 159.038 67.1384 159.259 66.5831 159.259Z" fill="#E6E6E6"/>
<path d="M195.535 95.8789H24.8604V96.571H195.535V95.8789Z" fill="#2F2E41"/>
</g>
<defs>
<clipPath id="clip0">
<rect width="196.352" height="179" fill="white"/>
</clipPath>
</defs>
</svg>
