<svg width="16" height="16" viewBox="0 0 16 16" fill="none" xmlns="http://www.w3.org/2000/svg">
<path d="M5.5 6.33334H5.50833M10.5 6.33334H10.5083M5.91666 10.5C6.18823 10.7772 6.51237 10.9974 6.8701 11.1477C7.22783 11.298 7.61196 11.3754 8 11.3754C8.38803 11.3754 8.77216 11.298 9.12989 11.1477C9.48762 10.9974 9.81176 10.7772 10.0833 10.5M15.5 8C15.5 12.1421 12.1421 15.5 8 15.5C3.85786 15.5 0.5 12.1421 0.5 8C0.5 3.85786 3.85786 0.5 8 0.5C12.1421 0.5 15.5 3.85786 15.5 8Z" stroke="#828282" stroke-linecap="round" stroke-linejoin="round"/>
</svg>
