<svg width="232" height="153" viewBox="0 0 232 153" fill="none" xmlns="http://www.w3.org/2000/svg">
<path d="M151.414 66.8063C151.147 68.2146 150.826 69.6086 150.452 70.9882C150.412 71.1484 150.366 71.3062 150.321 71.4664H145.12C144.677 71.4669 144.252 71.6434 143.939 71.9572C143.626 72.2709 143.45 72.6964 143.449 73.1401V87.9931C143.292 88.2872 143.132 88.5789 142.972 88.8706C142.146 90.3769 141.287 91.8665 140.408 93.337C126.086 117.237 106.11 137.236 82.244 151.57L83.6571 148.376C83.1391 148.34 82.6188 148.304 82.1009 148.268C70.8232 147.496 59.5072 146.64 48.4944 144.101C36.9732 141.444 25.7027 136.837 16.6733 129.197C7.64151 121.556 1.02053 110.643 0.101578 98.8363C-0.204843 94.7786 0.204817 90.6986 1.31177 86.7832C3.42879 79.2468 8.05454 72.4659 14.7281 68.4537C25.211 62.1534 38.8851 63.4374 49.936 68.6785C60.9846 73.9172 69.9782 82.5894 78.7593 91.111C69.8935 75.8809 57.5494 62.9735 42.7398 53.4477C37.8325 50.3011 32.6245 47.4989 28.4523 43.4222C24.2825 39.3479 21.2058 33.6358 21.9434 27.8471C22.7812 21.2814 28.1492 16.2985 33.5266 12.4561C35.6748 10.9211 37.8921 9.46499 40.1787 8.12602C46.6303 4.33865 53.6094 1.48139 60.9799 0.422172C70.9639 -1.01483 81.7476 1.16578 89.4021 7.74585C98.0257 15.1604 101.563 27.1178 101.226 38.5565C106.539 30.8191 114.733 24.8966 123.987 24.6455C133.594 24.3873 142.726 30.4677 147.538 38.8027C152.347 47.1354 153.211 57.3498 151.414 66.8063Z" fill="#B3EBFD"/>
<path d="M90.6314 98.9404C96.2583 98.444 101.456 97.8641 106.909 96.3184C112.194 94.8203 117.28 92.3123 121.042 88.2172C125.089 83.8126 127.273 78.0923 128.815 72.398C129.674 69.2232 130.38 66.004 131.046 62.7837C131.769 59.2897 132.411 55.7802 132.973 52.2553C134.091 45.2388 134.889 38.181 135.368 31.0819C135.426 30.2202 135.479 29.3582 135.527 28.4959C135.557 27.9639 134.731 27.9656 134.701 28.4959C134.308 35.4935 133.601 42.4639 132.58 49.4071C131.573 56.2286 130.284 63.0207 128.649 69.72C127.263 75.3953 125.469 81.1593 121.916 85.8838C118.584 90.3142 113.772 93.2094 108.576 94.9404C103.288 96.7018 97.7134 97.4051 92.1881 97.928C91.5103 97.9921 91.3096 98.0533 90.6314 98.1131C90.1061 98.1594 90.1012 98.9872 90.6314 98.9404L90.6314 98.9404Z" fill="white"/>
<path d="M1.78812 87.3936C8.8874 87.7881 15.9145 89.0285 22.7207 91.0887C29.5299 93.1447 36.0733 95.9979 42.2154 99.5892C48.1502 103.062 53.6597 107.218 58.6319 111.971C63.4576 116.587 67.7583 121.725 71.4557 127.289C75.1699 132.867 78.2479 138.844 80.6321 145.11C80.9229 145.876 81.2029 146.647 81.4723 147.422C81.6463 147.921 82.4444 147.706 82.2686 147.202C80.038 140.804 77.0975 134.678 73.5022 128.938C69.9076 123.197 65.689 117.873 60.9235 113.063C56.0818 108.179 50.6932 103.871 44.8649 100.225C32.6274 92.5891 18.7563 87.9694 4.39058 86.7459C3.52402 86.6731 2.65653 86.6133 1.78813 86.5663C1.25706 86.5372 1.25869 87.3646 1.78813 87.3936L1.78812 87.3936Z" fill="white"/>
<path d="M40.4015 9.09585C44.9407 10.542 49.2432 12.6482 53.1713 15.347C57.1852 18.1235 60.846 21.3802 64.0724 25.045C67.4725 28.9002 70.4953 33.0734 73.0993 37.5072C75.8614 42.1887 78.2608 47.0755 80.2765 52.1248C82.3521 57.3086 84.0979 62.6189 85.5033 68.0239C86.9319 73.4929 88.0477 79.0391 88.8455 84.6354C89.6391 90.1724 90.1194 95.75 90.2841 101.341C90.4501 106.688 90.2923 112.04 89.8116 117.367C89.3721 122.337 88.5693 127.268 87.4098 132.121C86.38 136.504 84.9288 140.776 83.0765 144.879C82.6474 145.81 82.1921 146.728 81.7107 147.633C81.4609 148.103 82.1736 148.521 82.4238 148.051C84.4708 144.132 86.1053 140.011 87.301 135.754C88.6425 131.015 89.6149 126.178 90.2095 121.288C90.8686 115.983 91.1896 110.641 91.1705 105.295C91.1586 99.6786 90.8249 94.0673 90.1709 88.4891C89.5166 82.8413 88.5452 77.2349 87.2614 71.6966C85.9806 66.1492 84.3559 60.6871 82.3968 55.3422C80.5086 50.168 78.2477 45.138 75.6321 40.2919C73.141 35.6675 70.2378 31.278 66.9581 27.177C63.8434 23.2722 60.2875 19.7421 56.3615 16.6574C52.5758 13.6919 48.3924 11.2746 43.9344 9.47656C42.845 9.0422 41.7406 8.64937 40.621 8.29809C40.1129 8.13794 39.8955 8.93636 40.4015 9.09585H40.4015Z" fill="white"/>
<path d="M89.3875 153C122.013 153 148.461 151.929 148.461 150.609C148.461 149.288 122.013 148.218 89.3875 148.218C56.7619 148.218 30.3137 149.288 30.3137 150.609C30.3137 151.929 56.7619 153 89.3875 153Z" fill="#B3EBFD"/>
<path d="M141.58 75.7199C141.55 75.8489 141.531 75.9801 141.523 76.1121L131.269 82.0375L128.777 80.6003L126.12 84.0845L131.452 87.8911L143.149 78.6468C143.626 78.8237 144.146 78.8509 144.639 78.7247C145.132 78.5986 145.575 78.3251 145.908 77.9407C146.242 77.5563 146.452 77.0792 146.508 76.5727C146.565 76.0663 146.466 75.5546 146.226 75.1057C145.985 74.6568 145.613 74.2919 145.161 74.0596C144.708 73.8273 144.195 73.7386 143.691 73.8053C143.187 73.8719 142.714 74.0909 142.337 74.4329C141.96 74.7749 141.696 75.2238 141.58 75.7199Z" fill="#FFB8B8"/>
<path d="M118.229 79.3552L126.302 85.1193L129.913 80.5842L122.065 74.2761C121.727 74.0047 121.338 73.8052 120.921 73.6899C120.503 73.5745 120.067 73.5457 119.638 73.6052C119.209 73.6647 118.797 73.8113 118.427 74.036C118.057 74.2607 117.736 74.5587 117.485 74.9119C116.995 75.5999 116.799 76.4546 116.938 77.2879C117.078 78.1212 117.542 78.8648 118.229 79.3552Z" fill="#FFFA32"/>
<path d="M101.564 145.124L104.395 145.867L108.603 135.284L104.425 134.187L101.564 145.124Z" fill="#FFB8B8"/>
<path d="M109.165 149.933L100.269 147.598L101.169 144.155L106.628 145.588C107.54 145.827 108.319 146.419 108.795 147.234C109.271 148.049 109.404 149.02 109.165 149.933Z" fill="#2F2E41"/>
<path d="M126.726 147.143L129.607 146.628L128.993 135.252L124.742 136.013L126.726 147.143Z" fill="#FFB8B8"/>
<path d="M135.64 148.313L126.587 149.933L125.962 146.429L131.518 145.435C131.977 145.353 132.448 145.362 132.904 145.462C133.36 145.562 133.791 145.752 134.174 146.019C134.557 146.286 134.883 146.626 135.135 147.02C135.387 147.414 135.558 147.853 135.64 148.313Z" fill="#2F2E41"/>
<path d="M121.054 63.4834C121.764 63.6565 122.342 64.3811 122.688 65.2205C123.008 66.1021 123.225 67.018 123.334 67.9497C123.606 69.6848 123.868 71.5632 123.304 73.1702C122.644 75.0536 120.884 76.0401 119.357 75.5765C117.83 75.113 116.616 73.3728 116.201 71.3698C115.823 69.3458 116.066 67.2547 116.899 65.3721C117.332 64.3829 117.93 63.4703 118.725 63.024C119.114 62.7879 119.579 62.7084 120.025 62.8015C120.471 62.8946 120.865 63.1533 121.128 63.5256" fill="#2F2E41"/>
<path d="M125.07 94.8983L130.555 144.104L126.025 145.827L117.671 112.831L106.041 143L101.083 143.276C101.083 143.276 107.885 96.3329 112.927 95.2661L125.07 94.8983Z" fill="#2F2E41"/>
<path d="M120.464 69.763C123.702 69.763 126.326 67.1337 126.326 63.8904C126.326 60.6471 123.702 58.0178 120.464 58.0178C117.226 58.0178 114.602 60.6471 114.602 63.8904C114.602 67.1337 117.226 69.763 120.464 69.763Z" fill="#FFB8B8"/>
<path d="M122.98 72.2268L116.645 71.399C116.645 71.399 112.514 76.3656 112.789 84.9191C113.064 93.4726 112.1 96.0939 112.1 96.0939L125.309 96.333C123.4 93.7028 131.386 78.5971 122.98 72.2268Z" fill="#FFFA32"/>
<path d="M126.383 97.5284C126.251 97.5294 126.119 97.5408 125.989 97.5625L117.885 88.9199L118.711 86.1607L114.717 84.3672L112.238 90.4374L123.898 99.7288C123.835 100.235 123.928 100.747 124.163 101.199C124.399 101.651 124.766 102.02 125.216 102.258C125.666 102.496 126.177 102.59 126.682 102.53C127.187 102.469 127.662 102.256 128.043 101.918C128.424 101.581 128.694 101.135 128.816 100.64C128.938 100.146 128.907 99.6255 128.727 99.149C128.547 98.6724 128.226 98.2621 127.807 97.9726C127.389 97.6831 126.892 97.5282 126.383 97.5284Z" fill="#FFB8B8"/>
<path d="M117.507 75.5892L113.753 84.7811L118.986 87.2644L123.32 78.1677C123.507 77.7764 123.611 77.351 123.628 76.9177C123.645 76.4843 123.573 76.0522 123.417 75.6477C123.261 75.2431 123.024 74.8748 122.721 74.5651C122.418 74.2555 122.055 74.0111 121.654 73.8469C121.268 73.6885 120.854 73.6079 120.436 73.6097C120.019 73.6115 119.605 73.6958 119.22 73.8575C118.835 74.0193 118.486 74.2555 118.192 74.5527C117.898 74.8498 117.665 75.202 117.507 75.5892Z" fill="#FFFA32"/>
<path d="M118.931 69.2293C119.849 68.6985 119.947 67.418 119.822 66.3631C119.697 65.3081 119.489 64.1321 120.108 63.2696C120.847 62.2401 122.331 62.2196 123.596 62.186C124.861 62.1524 126.402 61.7813 126.73 60.5567C126.946 59.7475 126.483 58.8792 125.818 58.3713C125.153 57.8634 124.321 57.6388 123.512 57.4254C121.703 56.948 119.835 56.4665 117.983 56.7289C116.148 56.9888 114.489 57.9619 113.365 59.4377C112.241 60.9134 111.743 62.7732 111.977 64.6145C112.277 66.9699 112.712 67.9984 112.426 69.0369C111.895 70.9713 109.602 72.214 109.557 74.2198C109.521 75.7888 110.904 76.9992 112.254 77.7959C113.325 78.4278 114.48 78.964 115.714 79.1119C116.948 79.2598 118.276 78.9766 119.196 78.1389C120.381 77.0584 120.674 75.2532 120.334 73.6842C119.994 72.1152 119.122 70.7218 118.26 69.3687" fill="#2F2E41"/>
<path d="M229.852 70.9882H145.12C144.55 70.989 144.004 71.216 143.602 71.6194C143.199 72.0228 142.972 72.5696 142.972 73.1401V127.655C142.972 128.226 143.199 128.773 143.602 129.176C144.004 129.579 144.55 129.806 145.12 129.807H229.852C230.421 129.806 230.967 129.579 231.37 129.176C231.772 128.773 231.999 128.226 232 127.655V73.1401C231.999 72.5696 231.772 72.0228 231.37 71.6194C230.967 71.216 230.421 70.989 229.852 70.9882ZM231.523 127.655C231.522 128.099 231.346 128.524 231.033 128.838C230.719 129.152 230.295 129.328 229.852 129.329H145.12C144.677 129.328 144.252 129.152 143.939 128.838C143.626 128.524 143.449 128.099 143.449 127.655V73.1401C143.449 72.6963 143.626 72.2709 143.939 71.9571C144.252 71.6434 144.677 71.4669 145.12 71.4664H229.852C230.295 71.4669 230.719 71.6434 231.033 71.9571C231.346 72.2709 231.522 72.6963 231.523 73.1401V127.655Z" fill="#3F3D56"/>
<path d="M163.206 98.1251H149.84C149.302 98.1245 148.786 97.9102 148.406 97.5292C148.026 97.1482 147.812 96.6316 147.811 96.0928V82.7031C147.812 82.1643 148.026 81.6477 148.406 81.2667C148.786 80.8857 149.302 80.6714 149.84 80.6707H163.206C163.744 80.6714 164.259 80.8857 164.64 81.2667C165.02 81.6477 165.234 82.1643 165.235 82.7031V96.0928C165.234 96.6316 165.02 97.1482 164.64 97.5292C164.259 97.9102 163.744 98.1245 163.206 98.1251Z" fill="#FFFA32"/>
<path d="M225.439 112.354H149.538C149.127 112.354 148.732 112.19 148.441 111.899C148.15 111.607 147.987 111.212 147.987 110.8C147.987 110.388 148.15 109.992 148.441 109.701C148.732 109.409 149.127 109.246 149.538 109.246H225.439C225.85 109.246 226.245 109.409 226.536 109.701C226.827 109.992 226.99 110.388 226.99 110.8C226.99 111.212 226.827 111.607 226.536 111.899C226.245 112.19 225.85 112.354 225.439 112.354Z" fill="#CCCCCC"/>
<path d="M225.49 104.822H149.589C149.178 104.822 148.783 104.658 148.492 104.367C148.201 104.076 148.038 103.68 148.038 103.268C148.038 102.856 148.201 102.461 148.492 102.169C148.783 101.878 149.178 101.714 149.589 101.714H225.49C225.901 101.714 226.296 101.878 226.587 102.169C226.878 102.461 227.041 102.856 227.041 103.268C227.041 103.68 226.878 104.076 226.587 104.367C226.296 104.658 225.901 104.822 225.49 104.822Z" fill="#CCCCCC"/>
<path d="M188.017 94.5385H176.799C176.387 94.5385 175.993 94.3747 175.702 94.0833C175.411 93.7918 175.247 93.3965 175.247 92.9843C175.247 92.5721 175.411 92.1768 175.702 91.8854C175.993 91.5939 176.387 91.4302 176.799 91.4302H188.017C188.428 91.4302 188.823 91.5939 189.114 91.8854C189.405 92.1768 189.568 92.5721 189.568 92.9843C189.568 93.3965 189.405 93.7918 189.114 94.0833C188.823 94.3747 188.428 94.5385 188.017 94.5385Z" fill="#CCCCCC"/>
<path d="M225.49 86.8896H176.799C176.387 86.8896 175.993 86.7259 175.702 86.4344C175.411 86.143 175.247 85.7477 175.247 85.3355C175.247 84.9233 175.411 84.528 175.702 84.2365C175.993 83.9451 176.387 83.7813 176.799 83.7813H225.49C225.901 83.7813 226.296 83.9451 226.587 84.2365C226.878 84.528 227.041 84.9233 227.041 85.3355C227.041 85.7477 226.878 86.143 226.587 86.4344C226.296 86.7259 225.901 86.8896 225.49 86.8896Z" fill="#CCCCCC"/>
<path d="M186.107 120.005H149.538C149.127 120.005 148.732 119.841 148.441 119.55C148.15 119.258 147.987 118.863 147.987 118.451C147.987 118.039 148.15 117.644 148.441 117.352C148.732 117.061 149.127 116.897 149.538 116.897H186.107C186.519 116.897 186.913 117.061 187.204 117.352C187.495 117.644 187.659 118.039 187.659 118.451C187.659 118.863 187.495 119.258 187.204 119.55C186.913 119.841 186.519 120.005 186.107 120.005Z" fill="#CCCCCC"/>
</svg>
