<svg width="103" height="100" viewBox="0 0 103 100" fill="none" xmlns="http://www.w3.org/2000/svg">
<path d="M100.376 37.8907C98.5972 31.2473 95.4333 25.0553 91.0916 19.7217C86.4564 13.6683 80.5096 8.74423 73.698 5.31934C66.6985 1.76384 58.9479 -0.0598811 51.0974 0.00149962C44.2494 -0.0484013 37.4634 1.30127 31.1557 3.9677C18.9162 9.13184 9.17692 18.8711 4.01278 31.1106C1.33792 37.4157 -0.0121101 44.2035 0.0465779 51.0523C-0.0807351 53.276 0.0531748 55.507 0.445463 57.6995C19.235 51.3846 67.2723 50.1438 101.506 57.6995C101.961 55.5145 102.154 53.283 102.082 51.0523C102.116 46.6078 101.542 42.1796 100.376 37.8907ZM67.8927 37.6913H22.8688C25.3642 32.4263 29.2773 27.9607 34.1691 24.7957C39.2015 21.5234 45.0954 19.8262 51.0974 19.9211C55.8518 19.8877 60.5483 20.9651 64.8128 23.0674C69.0153 25.1369 72.7079 28.1106 75.6257 31.7753C76.292 32.6927 76.9059 33.647 77.4647 34.6336C78.0408 35.6528 78.6612 36.6721 79.3038 37.6913H67.8927Z" fill="#004AFF"/>
<path d="M89.9386 67.8476C82.6488 67.8476 82.2943 69.9526 82.2943 69.9526C79.8798 74.491 76.5041 78.448 72.4029 81.5476C68.3017 84.6472 63.5737 86.8148 58.5486 87.8991C53.5235 88.9834 48.3223 88.9584 43.3079 87.8259C38.2935 86.6933 33.5865 84.4804 29.5153 81.3415C25.3402 77.8147 21.8608 73.5388 19.2564 68.7339C19.2564 68.7339 19.5222 66.6511 12.2324 66.6511C5.45224 66.6511 4.43305 68.468 4.32227 68.7339V68.9333C4.81783 70.1055 5.37248 71.2517 5.98407 72.3677C8.37938 77.0779 11.4969 81.3842 15.2237 85.1304C19.8897 89.7761 25.403 93.4842 31.4651 96.054C37.7734 98.7165 44.56 100.059 51.4068 99.9981C59.2626 100.066 67.0203 98.2505 74.0296 94.7025C80.8047 91.3002 86.7442 86.4426 91.4232 80.4773C92.7083 78.8155 93.8826 77.1094 94.9905 75.359C96.0828 73.614 97.0171 71.775 97.7824 69.8639C97.7824 69.8639 97.2063 67.8476 89.9386 67.8476Z" fill="#004AFF"/>
</svg>
