<svg width="137" height="38" viewBox="0 0 137 38" fill="none" xmlns="http://www.w3.org/2000/svg">
<path d="M0 4.51855H14.0844V7.61903H8.63828V26.5463H5.46374V7.6155H0V4.51855Z" fill="#00071A"/>
<path d="M28.8107 11.8269C29.7515 12.4471 30.5255 13.2889 31.0646 14.2784C31.6288 15.2955 31.9192 16.4416 31.9076 17.6046V26.6309H28.8107V17.6046C28.813 17.0974 28.7097 16.5953 28.5074 16.1302C28.1147 15.21 27.3817 14.477 26.4616 14.0844C25.9965 13.882 25.4943 13.7787 24.9872 13.781C24.4836 13.7817 23.985 13.8817 23.5202 14.0754C23.0553 14.2691 22.6333 14.5526 22.2782 14.9098C21.9359 15.2639 21.661 15.6775 21.4669 16.1302C21.2657 16.5955 21.1636 17.0976 21.1671 17.6046V26.6309H18.0667V0H21.1671V11.8269C21.7184 11.4593 22.321 11.1752 22.9554 10.9839C23.9333 10.6849 24.9651 10.6055 25.9773 10.7512C26.9894 10.8969 27.9569 11.2642 28.8107 11.8269Z" fill="#00071A"/>
<path d="M67.2898 11.8693C67.9692 12.3125 68.5601 12.8783 69.0323 13.5377L67.2898 14.9275L66.6267 15.4531C66.2836 14.9497 65.8237 14.537 65.2863 14.2503C64.7382 13.9503 64.1228 13.795 63.498 13.7988C62.991 13.7948 62.4888 13.897 62.0236 14.0986C61.5737 14.2916 61.1644 14.5681 60.8173 14.9134C60.4722 15.2586 60.1968 15.6669 60.006 16.1162C59.8048 16.5815 59.7027 17.0836 59.7062 17.5906V26.5287H56.6057V10.7124H59.7062V11.8693C60.2499 11.5013 60.8439 11.2138 61.4698 11.0158C62.7833 10.6113 64.188 10.6113 65.5015 11.0158C66.1356 11.2127 66.7379 11.5002 67.2898 11.8693Z" fill="#00071A"/>
<path d="M79.2329 10.7123C80.3012 10.7066 81.3591 10.9216 82.3405 11.3437C83.2906 11.7534 84.1565 12.3359 84.8942 13.0614C85.6424 13.807 86.2358 14.6933 86.6402 15.6691C87.0446 16.6449 87.252 17.6911 87.2504 18.7474V26.5427H84.1499V25.0824C83.4649 25.6021 82.7049 26.0147 81.896 26.3063C80.0176 26.9576 77.9647 26.891 76.1325 26.1194C74.2145 25.3066 72.6878 23.7799 71.8751 21.862C71.4497 20.8791 71.2335 19.8184 71.2401 18.7474C71.2351 17.6724 71.4499 16.6077 71.8715 15.6187C72.2717 14.6632 72.8539 13.7946 73.5858 13.0614C74.3144 12.333 75.1751 11.75 76.1219 11.3437C77.1043 10.9211 78.1635 10.7061 79.2329 10.7123ZM79.2329 23.6538C79.891 23.6593 80.5427 23.5246 81.1447 23.2588C81.7226 23.0062 82.2479 22.6472 82.6932 22.2006C83.1391 21.7507 83.4979 21.2221 83.7514 20.6415C84.0098 20.0436 84.1419 19.3988 84.1394 18.7474C84.1437 18.0867 84.0116 17.4323 83.7514 16.825C83.4987 16.244 83.1399 15.7153 82.6932 15.266C82.2479 14.8194 81.7226 14.4604 81.1447 14.2078C80.5411 13.9471 79.8905 13.8126 79.2329 13.8126C78.5754 13.8126 77.9248 13.9471 77.3211 14.2078C76.7428 14.4595 76.2173 14.8186 75.7727 15.266C75.326 15.7153 74.9671 16.244 74.7145 16.825C74.4515 17.4316 74.3181 18.0863 74.323 18.7474C74.3199 19.3992 74.4532 20.0444 74.7145 20.6415C74.968 21.2221 75.3268 21.7507 75.7727 22.2006C76.2173 22.648 76.7428 23.0071 77.3211 23.2588C77.9274 23.5269 78.5842 23.6616 79.247 23.6538H79.2329Z" fill="#00071A"/>
<path d="M100.044 10.6523C101.11 10.6451 102.166 10.8601 103.144 11.2836C104.086 11.6938 104.943 12.2764 105.67 13.0014C106.397 13.7268 106.978 14.5839 107.384 15.5269C107.803 16.5069 108.019 17.5616 108.019 18.6274C108.019 19.6932 107.803 20.7479 107.384 21.7279C106.978 22.6709 106.397 23.5281 105.67 24.2534C104.943 24.9785 104.086 25.5611 103.144 25.9712C102.166 26.3947 101.11 26.6097 100.044 26.6026C99.1518 26.6074 98.2658 26.4546 97.4268 26.1511C96.6153 25.858 95.8539 25.4416 95.1693 24.9165V37.262H92.0688V18.6274C92.0604 17.5626 92.2705 16.5073 92.6861 15.5269C93.083 14.5825 93.6605 13.7246 94.3863 13.0014C95.1176 12.273 95.9806 11.6901 96.9294 11.2836C97.9131 10.8611 98.9734 10.6461 100.044 10.6523ZM100.044 23.5021C100.691 23.5048 101.332 23.3714 101.924 23.1106C103.092 22.606 104.023 21.675 104.527 20.5074C104.785 19.9143 104.919 19.2743 104.919 18.6274C104.919 17.9805 104.785 17.3405 104.527 16.7474C104.274 16.169 103.915 15.6427 103.469 15.1954C103.024 14.7488 102.498 14.3898 101.921 14.1372C101.328 13.8764 100.688 13.743 100.04 13.7457C99.3828 13.7404 98.7314 13.8738 98.1287 14.1372C97.5508 14.3898 97.0255 14.7488 96.5802 15.1954C96.1292 15.6383 95.7696 16.1657 95.522 16.7474C95.2714 17.3423 95.1442 17.9819 95.1481 18.6274V18.6592C95.1455 19.3064 95.2789 19.9469 95.5397 20.5392C95.7909 21.1178 96.1501 21.6433 96.5979 22.0877C97.0429 22.5309 97.57 22.8832 98.1499 23.1247C98.7483 23.3803 99.3933 23.5088 100.044 23.5021Z" fill="#00071A"/>
<path d="M112.823 0.151611H115.924V26.4227H112.823V0.151611Z" fill="#00071A"/>
<path d="M136.929 10.7441L129.945 25.2059L128.11 29.0295L124.379 36.7895H120.798L126.442 25.1142L120.104 10.7441H123.631L128.262 21.3048L133.348 10.7441H136.929Z" fill="#00071A"/>
<path d="M52.2777 16.7299C51.9946 15.6723 51.491 14.6866 50.7998 13.8375C50.0619 12.8739 49.1152 12.09 48.0309 11.5448C46.9166 10.9788 45.6828 10.6885 44.4331 10.6982C43.3429 10.6903 42.2627 10.9051 41.2585 11.3296C39.3101 12.1517 37.7597 13.7021 36.9376 15.6505C36.5118 16.6542 36.2969 17.7348 36.3062 18.8251C36.286 19.1791 36.3073 19.5342 36.3697 19.8832C39.3609 18.878 47.008 18.6804 52.4576 19.8832C52.53 19.5354 52.5608 19.1802 52.5493 18.8251C52.5547 18.1176 52.4633 17.4126 52.2777 16.7299ZM39.9393 16.6981C40.3366 15.86 40.9595 15.1491 41.7382 14.6453C42.5394 14.1243 43.4776 13.8542 44.4331 13.8693C45.1899 13.8639 45.9376 14.0354 46.6165 14.3701C47.2855 14.6996 47.8733 15.1729 48.3378 15.7563C48.4438 15.9024 48.5416 16.0543 48.6305 16.2114C48.7222 16.3736 48.821 16.5359 48.9233 16.6981H39.9393Z" fill="#004AFF"/>
<path d="M50.6164 21.4987C49.4559 21.4987 49.3995 21.8338 49.3995 21.8338C49.0151 22.5563 48.4777 23.1862 47.8249 23.6797C47.172 24.1731 46.4193 24.5181 45.6194 24.6908C44.8194 24.8634 43.9914 24.8594 43.1932 24.6791C42.3949 24.4988 41.6456 24.1465 40.9975 23.6468C40.3329 23.0854 39.779 22.4047 39.3644 21.6398C39.3644 21.6398 39.4067 21.3083 38.2462 21.3083C37.1669 21.3083 37.0047 21.5975 36.987 21.6398V21.6716C37.0659 21.8582 37.1542 22.0406 37.2516 22.2183C37.6329 22.9681 38.1292 23.6536 38.7224 24.25C39.4652 24.9896 40.3429 25.5799 41.3079 25.9889C42.3121 26.4128 43.3925 26.6265 44.4825 26.6168C45.733 26.6277 46.968 26.3386 48.0838 25.7738C49.1623 25.2322 50.1079 24.4589 50.8527 23.5093C51.0573 23.2447 51.2442 22.9731 51.4206 22.6945C51.5945 22.4167 51.7432 22.1239 51.865 21.8197C51.865 21.8197 51.7733 21.4987 50.6164 21.4987Z" fill="#004AFF"/>
</svg>
