<svg width="12" height="18" viewBox="0 0 12 18" fill="none" xmlns="http://www.w3.org/2000/svg">
<path d="M11 7.57139V8.99997C11 10.326 10.4732 11.5978 9.53553 12.5355C8.59785 13.4732 7.32608 14 6 14M6 14C4.67392 14 3.40215 13.4732 2.46447 12.5355C1.52678 11.5978 1 10.326 1 8.99997V7.57139M6 14V16.8571M3.14286 16.8571H8.85714M6 1.14282C5.43168 1.14282 4.88663 1.36859 4.48477 1.77045C4.08291 2.17231 3.85714 2.71736 3.85714 3.28568V8.99997C3.85714 9.56829 4.08291 10.1133 4.48477 10.5152C4.88663 10.9171 5.43168 11.1428 6 11.1428C6.56832 11.1428 7.11337 10.9171 7.51523 10.5152C7.91709 10.1133 8.14286 9.56829 8.14286 8.99997V3.28568C8.14286 2.71736 7.91709 2.17231 7.51523 1.77045C7.11337 1.36859 6.56832 1.14282 6 1.14282Z" stroke="#828282" stroke-linecap="round" stroke-linejoin="round"/>
</svg>
