<svg width="15" height="14" viewBox="0 0 15 14" fill="none" xmlns="http://www.w3.org/2000/svg">
<path d="M3.1974 7.23664L14.4144 7.23664M3.1974 7.23664L1.41287 12.5902C1.38643 12.6614 1.38098 12.7387 1.39717 12.8129C1.41336 12.887 1.45051 12.955 1.5042 13.0087C1.5579 13.0624 1.62589 13.0996 1.70008 13.1158C1.77427 13.132 1.85155 13.1265 1.92274 13.1001L14.4144 7.23664M3.1974 7.23664L1.41287 1.88308C1.38643 1.81189 1.38098 1.73461 1.39717 1.66042C1.41336 1.58623 1.45051 1.51824 1.5042 1.46455C1.5579 1.41085 1.62588 1.3737 1.70008 1.35751C1.77427 1.34132 1.85155 1.34677 1.92273 1.37322L14.4144 7.23664" stroke="white" stroke-linecap="round" stroke-linejoin="round"/>
</svg>
