<svg width="25" height="23" viewBox="0 0 25 23" fill="none" xmlns="http://www.w3.org/2000/svg">
<path d="M12.562 11.562V11.5741M7.70796 11.562V11.5741M17.416 11.562V11.5741M1.6405 21.27L3.21805 16.5373C1.85462 14.5208 1.36139 12.1328 1.83007 9.81733C2.29876 7.50183 3.69746 5.41641 5.76612 3.94881C7.83478 2.4812 10.4326 1.73129 13.0766 1.83849C15.7206 1.94569 18.2309 2.90272 20.1407 4.53163C22.0504 6.16055 23.2297 8.3505 23.4593 10.6943C23.6889 13.0381 22.9531 15.3763 21.3888 17.2741C19.8245 19.1719 17.5382 20.5001 14.9548 21.0119C12.3714 21.5237 9.66684 21.1842 7.34395 20.0565L1.6405 21.27Z" stroke="#000F33" stroke-width="2" stroke-linecap="round" stroke-linejoin="round"/>
</svg>
