<svg width="137" height="38" viewBox="0 0 137 38" fill="none" xmlns="http://www.w3.org/2000/svg">
<path d="M0 4.51843H14.0844V7.6189H8.63828V26.5462H5.46374V7.61537H0V4.51843Z" fill="#00071A"/>
<path d="M28.8107 11.8269C29.7515 12.4471 30.5255 13.2889 31.0646 14.2784C31.6288 15.2955 31.9192 16.4416 31.9076 17.6046V26.6309H28.8107V17.6046C28.813 17.0974 28.7097 16.5953 28.5074 16.1302C28.1147 15.21 27.3817 14.477 26.4616 14.0844C25.9965 13.882 25.4943 13.7787 24.9872 13.781C24.4836 13.7817 23.985 13.8817 23.5202 14.0754C23.0553 14.2691 22.6333 14.5526 22.2782 14.9098C21.9359 15.2639 21.661 15.6775 21.4669 16.1302C21.2657 16.5955 21.1636 17.0976 21.1671 17.6046V26.6309H18.0667V0H21.1671V11.8269C21.7184 11.4593 22.321 11.1752 22.9554 10.9839C23.9333 10.6849 24.9651 10.6055 25.9773 10.7512C26.9894 10.8969 27.9569 11.2642 28.8107 11.8269Z" fill="#00071A"/>
<path d="M67.2897 11.8693C67.9691 12.3124 68.5599 12.8782 69.0321 13.5377L67.2897 14.9274L66.6266 15.453C66.2835 14.9496 65.8236 14.5369 65.2862 14.2502C64.7381 13.9503 64.1227 13.7949 63.4979 13.7987C62.9909 13.7947 62.4887 13.8969 62.0235 14.0985C61.5736 14.2915 61.1643 14.568 60.8172 14.9133C60.4721 15.2585 60.1967 15.6668 60.0059 16.1161C59.8046 16.5814 59.7025 17.0835 59.7061 17.5905V26.5286H56.6056V10.7123H59.7061V11.8693C60.2498 11.5013 60.8438 11.2138 61.4697 11.0157C62.7832 10.6112 64.1879 10.6112 65.5014 11.0157C66.1355 11.2126 66.7378 11.5001 67.2897 11.8693Z" fill="#00071A"/>
<path d="M79.2331 10.7123C80.3013 10.7066 81.3592 10.9216 82.3406 11.3437C83.2907 11.7535 84.1566 12.3359 84.8943 13.0615C85.6425 13.8071 86.2359 14.6933 86.6403 15.6691C87.0447 16.645 87.2521 17.6911 87.2505 18.7474V26.5427H84.1501V25.0824C83.465 25.6021 82.705 26.0148 81.8961 26.3064C80.0177 26.9577 77.9648 26.8911 76.1326 26.1194C74.2147 25.3067 72.6879 23.7799 71.8752 21.862C71.4498 20.8791 71.2336 19.8184 71.2403 18.7474C71.2352 17.6724 71.4501 16.6077 71.8716 15.6187C72.2718 14.6632 72.854 13.7946 73.5859 13.0615C74.3145 12.333 75.1752 11.7501 76.122 11.3437C77.1044 10.9211 78.1636 10.7062 79.2331 10.7123ZM79.2331 23.6539C79.8911 23.6593 80.5428 23.5246 81.1448 23.2588C81.7227 23.0062 82.248 22.6473 82.6933 22.2006C83.1392 21.7507 83.498 21.2221 83.7515 20.6416C84.01 20.0437 84.142 19.3988 84.1395 18.7474C84.1438 18.0868 84.0117 17.4323 83.7515 16.8251C83.4989 16.2441 83.14 15.7153 82.6933 15.266C82.248 14.8194 81.7227 14.4604 81.1448 14.2078C80.5412 13.9471 79.8906 13.8126 79.2331 13.8126C78.5755 13.8126 77.9249 13.9471 77.3213 14.2078C76.7429 14.4596 76.2175 14.8186 75.7728 15.266C75.3261 15.7153 74.9672 16.2441 74.7146 16.8251C74.4516 17.4316 74.3182 18.0864 74.3231 18.7474C74.32 19.3992 74.4534 20.0444 74.7146 20.6416C74.9681 21.2221 75.3269 21.7507 75.7728 22.2006C76.2175 22.648 76.7429 23.0071 77.3213 23.2588C77.9275 23.5269 78.5843 23.6616 79.2472 23.6539H79.2331Z" fill="#00071A"/>
<path d="M100.044 10.6524C101.11 10.6452 102.166 10.8602 103.144 11.2837C104.086 11.6939 104.942 12.2765 105.67 13.0015C106.396 13.7269 106.978 14.584 107.384 15.527C107.803 16.507 108.019 17.5617 108.019 18.6275C108.019 19.6933 107.803 20.748 107.384 21.728C106.978 22.671 106.396 23.5282 105.67 24.2535C104.942 24.9786 104.086 25.5612 103.144 25.9713C102.166 26.3948 101.11 26.6098 100.044 26.6027C99.1517 26.6075 98.2656 26.4547 97.4266 26.1512C96.6152 25.858 95.8538 25.4416 95.1692 24.9166V37.2621H92.0687V18.6275C92.0603 17.5627 92.2704 16.5074 92.686 15.527C93.0829 14.5826 93.6604 13.7247 94.3861 13.0015C95.1174 12.2731 95.9805 11.6901 96.9293 11.2837C97.913 10.8612 98.9733 10.6462 100.044 10.6524ZM100.044 23.5022C100.691 23.5049 101.332 23.3715 101.924 23.1107C103.091 22.6061 104.022 21.675 104.527 20.5075C104.785 19.9144 104.919 19.2744 104.919 18.6275C104.919 17.9806 104.785 17.3406 104.527 16.7475C104.273 16.1691 103.915 15.6428 103.469 15.1955C103.024 14.7489 102.498 14.3899 101.92 14.1373C101.328 13.8765 100.688 13.7431 100.04 13.7458C99.3827 13.7405 98.7312 13.8739 98.1286 14.1373C97.5507 14.3899 97.0254 14.7489 96.5801 15.1955C96.129 15.6384 95.7695 16.1658 95.5219 16.7475C95.2713 17.3424 95.1441 17.982 95.148 18.6275V18.6593C95.1453 19.3064 95.2787 19.947 95.5396 20.5393C95.7908 21.1179 96.1499 21.6434 96.5977 22.0878C97.0428 22.531 97.5699 22.8833 98.1497 23.1248C98.7482 23.3804 99.3932 23.5089 100.044 23.5022Z" fill="#00071A"/>
<path d="M112.823 0.151672H115.924V26.4228H112.823V0.151672Z" fill="#00071A"/>
<path d="M136.929 10.744L129.945 25.2058L128.11 29.0294L124.379 36.7894H120.798L126.442 25.1141L120.103 10.744H123.631L128.262 21.3047L133.348 10.744H136.929Z" fill="#00071A"/>
<path d="M52.2776 16.7298C51.9945 15.6723 51.4908 14.6866 50.7997 13.8375C50.0618 12.8738 49.1151 12.09 48.0308 11.5448C46.9165 10.9788 45.6827 10.6884 44.4329 10.6982C43.3428 10.6903 42.2625 10.9051 41.2584 11.3296C39.31 12.1517 37.7596 13.7021 36.9375 15.6505C36.5117 16.6542 36.2968 17.7348 36.3061 18.825C36.2859 19.179 36.3072 19.5342 36.3696 19.8832C39.3607 18.8779 47.0079 18.6804 52.4575 19.8832C52.5299 19.5354 52.5607 19.1802 52.5492 18.825C52.5546 18.1175 52.4632 17.4126 52.2776 16.7298ZM39.9392 16.6981C40.3365 15.8599 40.9594 15.1491 41.7381 14.6452C42.5392 14.1243 43.4775 13.8541 44.4329 13.8692C45.1898 13.8639 45.9375 14.0354 46.6163 14.3701C47.2853 14.6995 47.8732 15.1729 48.3376 15.7563C48.4437 15.9024 48.5414 16.0543 48.6304 16.2113C48.7221 16.3736 48.8209 16.5358 48.9232 16.6981H39.9392Z" fill="#004AFF"/>
<path d="M50.6163 21.4987C49.4558 21.4987 49.3993 21.8338 49.3993 21.8338C49.015 22.5563 48.4776 23.1862 47.8247 23.6796C47.1719 24.1731 46.4192 24.5181 45.6192 24.6907C44.8193 24.8633 43.9913 24.8594 43.1931 24.6791C42.3948 24.4988 41.6455 24.1465 40.9974 23.6468C40.3328 23.0854 39.7789 22.4047 39.3643 21.6398C39.3643 21.6398 39.4066 21.3082 38.2461 21.3082C37.1668 21.3082 37.0045 21.5975 36.9869 21.6398V21.6715C37.0658 21.8581 37.1541 22.0406 37.2514 22.2183C37.6327 22.9681 38.129 23.6536 38.7223 24.25C39.4651 24.9895 40.3428 25.5798 41.3078 25.9889C42.312 26.4127 43.3924 26.6264 44.4823 26.6168C45.7329 26.6276 46.9679 26.3386 48.0837 25.7738C49.1622 25.2321 50.1077 24.4589 50.8526 23.5092C51.0572 23.2447 51.2441 22.9731 51.4205 22.6944C51.5943 22.4167 51.7431 22.1239 51.8649 21.8197C51.8649 21.8197 51.7732 21.4987 50.6163 21.4987Z" fill="#004AFF"/>
</svg>
